{"title":"The Rapeman OVA 1994 360P x264 MP4 - Ofek","uid":10162008,"size":451964923,"categoryP":"video","categoryS":"tv_shows","magnet":"?xt=urn:btih:a1921a773d096c38f4d02167def75456d960dc2e&amp;dn=The+Rapeman+OVA+1994+360P+x264+MP4+-+Ofek&amp;tr=udp%3A%2F%2Ftracker.openbittorrent.com%3A80&amp;tr=udp%3A%2F%2Fopen.demonii.com%3A1337&amp;tr=udp%3A%2F%2Ftracker.coppersurfer.tk%3A6969&amp;tr=udp%3A%2F%2Fexodus.desync.com%3A6969","seeders":2,"leechers":3,"uploader":"realOfek","files":1,"time":1400308852,"description":"Please leave feedback!\n\nSource: DVDrip https://thepiratebay.se/torrent/5503545/The_Rapeman_EP01-02_%5BRAW%5D_%5BENG_SUBS%5D\n\nRe-encoded for streaming purposes. This is the OVA of the discontinued manga series http://en.wikipedia.org/wiki/The_Rapeman. Only these 2 episodes (which are combined into 1 video) were ever made. The English subtitles are hard-coded, and are hilarious lol\n\nGeneral\nFormat : MPEG-4\nFormat profile : Base Media\nCodec ID : isom\nFile size : 431 MiB\nDuration : 47mn 47s\nOverall bit rate mode : Variable\nOverall bit rate : 1 261 Kbps\nEncoded date : UTC 2014-05-15 20:32:54\nTagged date : UTC 2014-05-15 20:32:54\n\nVideo\nID : 1\nFormat : AVC\nFormat/Info : Advanced Video Codec\nFormat profile : &lt;a class=&quot;__cf_email__&quot; href=&quot;/cdn-cgi/l/email-protection&quot; data-cfemail=&quot;642c0d030c2428574a55&quot;&gt;[email&amp;#160;protected]&lt;/a&gt;&lt;script cf-hash='f9e31' type=&quot;text/javascript&quot;&gt;\n/* &lt;![CDATA[ */!function(){try{var t=&quot;currentScript&quot;in document?document.currentScript:function(){for(var t=document.getElementsByTagName(&quot;script&quot;),e=t.length;e--;)if(t[e].getAttribute(&quot;cf-hash&quot;))return t[e]}();if(t&amp;&amp;t.previousSibling){var e,r,n,i,c=t.previousSibling,a=c.getAttribute(&quot;data-cfemail&quot;);if(a){for(e=&quot;&quot;,r=parseInt(a.substr(0,2),16),n=2;a.length-n;n+=2)i=parseInt(a.substr(n,2),16)^r,e+=String.fromCharCode(i);e=document.createTextNode(e),c.parentNode.replaceChild(e,c)}}}catch(u){}}();/* ]]&gt; */&lt;/script&gt;\nFormat settings, CABAC : Yes\nFormat settings, ReFrames : 8 frames\nCodec ID : avc1\nCodec ID/Info : Advanced Video Coding\nDuration : 47mn 47s\nBit rate : 1 121 Kbps\nMaximum bit rate : 4 582 Kbps\nWidth : 640 pixels\nHeight : 480 pixels\nDisplay aspect ratio : 4:3\nOriginal display aspect ratio : 4:3\nFrame rate mode : Constant\nFrame rate : 23.976 fps\nColor space : YUV\nChroma subsampling : 4:2:0\nBit depth : 8 bits\nScan type : Progressive\nBits/(Pixel*Frame) : 0.152\nStream size : 383 MiB (89%)\nTitle : 1.h264 - Imported with GPAC 0.5.0-rev4065\nWriting library : x264 core 142 r2431 ac76440\nEncoding settings : cabac=1 / ref=8 / deblock=1:1:1 / analyse=0x3:0x133 / me=umh / subme=10 / psy=1 / psy_rd=0.40:0.00 / mixed_ref=1 / me_range=24 / chroma_me=1 / trellis=2 / 8x8dct=1 / cqm=0 / deadzone=21,11 / fast_pskip=1 / chroma_qp_offset=-2 / threads=12 / lookahead_threads=1 / sliced_threads=0 / nr=0 / decimate=1 / interlaced=0 / bluray_compat=0 / constrained_intra=0 / bframes=3 / b_pyramid=2 / b_adapt=2 / b_bias=0 / direct=3 / weightb=1 / open_gop=0 / weightp=2 / keyint=250 / keyint_min=23 / scenecut=40 / intra_refresh=0 / rc_lookahead=60 / rc=crf / mbtree=1 / crf=16.0 / qcomp=0.60 / qpmin=0 / qpmax=69 / qpstep=4 / ip_ratio=1.40 / aq=1:0.60\nLanguage : jap\nEncoded date : UTC 2014-05-15 20:32:54\nTagged date : UTC 2014-05-15 20:33:02\n\nAudio\nID : 2\nFormat : AAC\nFormat/Info : Advanced Audio Codec\nFormat profile : LC\nCodec ID : 40\nDuration : 47mn 47s\nBit rate mode : Variable\nBit rate : 135 Kbps\nMaximum bit rate : 198 Kbps\nChannel(s) : 2 channels\nChannel positions : Front: L R\nSampling rate : 48.0 KHz\nCompression mode : Lossy\nStream size : 46.3 MiB (11%)\nLanguage : jap\nEncoded date : UTC 2014-05-15 20:33:01\nTagged date : UTC 2014-05-15 20:33:02\n\nEnjoy! ","torrent":{"xt":"urn:btih:a1921a773d096c38f4d02167def75456d960dc2e","amp;dn":"The+Rapeman+OVA+1994+360P+x264+MP4+-+Ofek","amp;tr":["udp%3A%2F%2Ftracker.openbittorrent.com%3A80","udp%3A%2F%2Fopen.demonii.com%3A1337","udp%3A%2F%2Ftracker.coppersurfer.tk%3A6969","udp%3A%2F%2Fexodus.desync.com%3A6969"],"infoHash":"a1921a773d096c38f4d02167def75456d960dc2e","infoHashBuffer":{"type":"Buffer","data":[161,146,26,119,61,9,108,56,244,208,33,103,222,247,84,86,217,96,220,46]},"announce":[],"urlList":[]}}